<svg data-v-423bf9ae="" xmlns="http://www.w3.org/2000/svg" viewBox="0 0 179.1717283268912 60" class="font"><!----><!----><!----><g data-v-423bf9ae="" id="cc39fa75-20d5-439c-bd2e-48eef06f0fb5" fill="black" transform="matrix(4.240750789642334,0,0,4.240750789642334,-3.4787402153015137,-13.401433944702148)"><path d="M5.11 12.56L5.11 12.56L5.11 12.56Q4.94 12.71 4.70 12.92L4.70 12.92L4.70 12.92Q4.46 13.13 4.15 13.32L4.15 13.32L4.15 13.32Q3.85 13.51 3.49 13.64L3.49 13.64L3.49 13.64Q3.13 13.78 2.73 13.78L2.73 13.78L2.73 13.78Q2.37 13.78 2.02 13.65L2.02 13.65L2.02 13.65Q1.67 13.53 1.41 13.28L1.41 13.28L1.41 13.28Q1.14 13.03 0.98 12.66L0.98 12.66L0.98 12.66Q0.82 12.29 0.82 11.81L0.82 11.81L0.82 11.81Q0.82 11.52 0.89 11.22L0.89 11.22L0.89 11.22Q0.96 10.92 1.13 10.64L1.13 10.64L1.13 10.64Q1.31 10.36 1.58 10.12L1.58 10.12L1.58 10.12Q1.86 9.88 2.27 9.70L2.27 9.70L2.27 9.70Q2.67 9.52 3.23 9.41L3.23 9.41L3.23 9.41Q3.78 9.31 4.50 9.31L4.50 9.31L5.11 9.31L5.11 8.68L5.11 8.68Q5.11 8.37 5.00 8.11L5.00 8.11L5.00 8.11Q4.89 7.86 4.70 7.68L4.70 7.68L4.70 7.68Q4.50 7.50 4.23 7.40L4.23 7.40L4.23 7.40Q3.96 7.30 3.64 7.30L3.64 7.30L3.64 7.30Q3.39 7.30 3.11 7.36L3.11 7.36L3.11 7.36Q2.84 7.41 2.56 7.51L2.56 7.51L2.56 7.51Q2.28 7.62 2.03 7.75L2.03 7.75L2.03 7.75Q1.78 7.89 1.59 8.05L1.59 8.05L1.46 7.98L1.19 6.99L1.19 6.99Q1.59 6.77 1.96 6.63L1.96 6.63L1.96 6.63Q2.32 6.49 2.66 6.41L2.66 6.41L2.66 6.41Q3.00 6.32 3.31 6.29L3.31 6.29L3.31 6.29Q3.62 6.26 3.90 6.26L3.90 6.26L3.90 6.26Q5.17 6.26 5.79 6.79L5.79 6.79L5.79 6.79Q6.41 7.32 6.41 8.38L6.41 8.38L6.41 11.95L6.41 11.95Q6.41 12.04 6.43 12.16L6.43 12.16L6.43 12.16Q6.44 12.29 6.49 12.41L6.49 12.41L6.49 12.41Q6.54 12.52 6.64 12.61L6.64 12.61L6.64 12.61Q6.74 12.69 6.91 12.69L6.91 12.69L6.91 12.69Q7.01 12.69 7.16 12.66L7.16 12.66L7.16 12.66Q7.32 12.63 7.48 12.55L7.48 12.55L7.48 13.28L7.48 13.28Q7.15 13.50 6.82 13.64L6.82 13.64L6.82 13.64Q6.49 13.78 6.18 13.78L6.18 13.78L6.18 13.78Q5.90 13.78 5.72 13.67L5.72 13.67L5.72 13.67Q5.54 13.56 5.42 13.38L5.42 13.38L5.42 13.38Q5.30 13.20 5.23 12.98L5.23 12.98L5.23 12.98Q5.16 12.77 5.11 12.56ZM5.11 11.69L5.11 10.10L4.59 10.10L4.59 10.10Q3.79 10.10 3.32 10.22L3.32 10.22L3.32 10.22Q2.84 10.33 2.59 10.52L2.59 10.52L2.59 10.52Q2.34 10.71 2.27 10.95L2.27 10.95L2.27 10.95Q2.19 11.20 2.19 11.46L2.19 11.46L2.19 11.46Q2.19 11.75 2.27 11.98L2.27 11.98L2.27 11.98Q2.35 12.20 2.50 12.36L2.50 12.36L2.50 12.36Q2.65 12.52 2.85 12.61L2.85 12.61L2.85 12.61Q3.06 12.69 3.29 12.69L3.29 12.69L3.29 12.69Q3.48 12.69 3.67 12.64L3.67 12.64L3.67 12.64Q3.87 12.60 4.09 12.49L4.09 12.49L4.09 12.49Q4.31 12.37 4.56 12.18L4.56 12.18L4.56 12.18Q4.81 11.99 5.11 11.69L5.11 11.69ZM10.36 8.45L10.36 12.41L10.36 12.41Q10.55 12.51 10.76 12.57L10.76 12.57L10.76 12.57Q10.98 12.63 11.19 12.67L11.19 12.67L11.19 12.67Q11.41 12.71 11.61 12.73L11.61 12.73L11.61 12.73Q11.81 12.74 11.95 12.74L11.95 12.74L11.95 12.74Q12.51 12.74 12.98 12.53L12.98 12.53L12.98 12.53Q13.45 12.32 13.78 11.94L13.78 11.94L13.78 11.94Q14.12 11.57 14.30 11.06L14.30 11.06L14.30 11.06Q14.49 10.55 14.49 9.95L14.49 9.95L14.49 9.95Q14.49 9.43 14.34 8.96L14.34 8.96L14.34 8.96Q14.19 8.48 13.92 8.13L13.92 8.13L13.92 8.13Q13.65 7.77 13.27 7.56L13.27 7.56L13.27 7.56Q12.89 7.36 12.43 7.36L12.43 7.36L12.43 7.36Q11.87 7.36 11.34 7.66L11.34 7.66L11.34 7.66Q10.82 7.96 10.36 8.45L10.36 8.45ZM10.04 6.40L10.27 7.66L10.27 7.66Q10.51 7.42 10.80 7.18L10.80 7.18L10.80 7.18Q11.09 6.93 11.44 6.73L11.44 6.73L11.44 6.73Q11.78 6.52 12.17 6.39L12.17 6.39L12.17 6.39Q12.57 6.26 13.02 6.26L13.02 6.26L13.02 6.26Q13.69 6.26 14.21 6.55L14.21 6.55L14.21 6.55Q14.73 6.84 15.10 7.32L15.10 7.32L15.10 7.32Q15.46 7.81 15.66 8.43L15.66 8.43L15.66 8.43Q15.85 9.06 15.85 9.73L15.85 9.73L15.85 9.73Q15.85 10.61 15.53 11.35L15.53 11.35L15.53 11.35Q15.20 12.10 14.65 12.64L14.65 12.64L14.65 12.64Q14.10 13.18 13.35 13.48L13.35 13.48L13.35 13.48Q12.61 13.78 11.78 13.78L11.78 13.78L11.78 13.78Q11.44 13.78 11.05 13.73L11.05 13.73L11.05 13.73Q10.66 13.69 10.36 13.60L10.36 13.60L10.36 17.31L9.06 17.31L9.06 6.40L10.04 6.40ZM17.80 13.64L17.80 6.40L19.10 6.40L19.10 13.64L17.80 13.64ZM18.46 4.83L18.46 4.83L18.46 4.83Q18.29 4.83 18.14 4.76L18.14 4.76L18.14 4.76Q17.99 4.70 17.88 4.59L17.88 4.59L17.88 4.59Q17.77 4.48 17.71 4.34L17.71 4.34L17.71 4.34Q17.64 4.19 17.64 4.01L17.64 4.01L17.64 4.01Q17.64 3.83 17.71 3.68L17.71 3.68L17.71 3.68Q17.78 3.52 17.89 3.40L17.89 3.40L17.89 3.40Q18.01 3.29 18.16 3.22L18.16 3.22L18.16 3.22Q18.31 3.16 18.48 3.16L18.48 3.16L18.48 3.16Q18.65 3.16 18.80 3.22L18.80 3.22L18.80 3.22Q18.94 3.29 19.05 3.40L19.05 3.40L19.05 3.40Q19.16 3.52 19.22 3.67L19.22 3.67L19.22 3.67Q19.28 3.83 19.28 4.00L19.28 4.00L19.28 4.00Q19.28 4.18 19.22 4.34L19.22 4.34L19.22 4.34Q19.15 4.49 19.03 4.60L19.03 4.60L19.03 4.60Q18.92 4.70 18.77 4.76L18.77 4.76L18.77 4.76Q18.62 4.83 18.46 4.83ZM23.15 4.69L23.15 13.64L21.81 13.64L21.81 3.63L24.55 3.63L24.55 3.63Q25.34 3.63 26.02 3.83L26.02 3.83L26.02 3.83Q26.70 4.03 27.20 4.42L27.20 4.42L27.20 4.42Q27.71 4.81 27.99 5.39L27.99 5.39L27.99 5.39Q28.28 5.97 28.28 6.73L28.28 6.73L28.28 6.73Q28.28 7.27 28.14 7.73L28.14 7.73L28.14 7.73Q27.99 8.19 27.74 8.57L27.74 8.57L27.74 8.57Q27.48 8.94 27.14 9.23L27.14 9.23L27.14 9.23Q26.80 9.52 26.40 9.72L26.40 9.72L26.40 9.72Q26.00 9.92 25.57 10.02L25.57 10.02L25.57 10.02Q25.14 10.12 24.71 10.12L24.71 10.12L24.71 10.12Q24.63 10.12 24.53 10.12L24.53 10.12L24.53 10.12Q24.44 10.12 24.30 10.10L24.30 10.10L24.40 9.07L24.40 9.07Q24.52 9.09 24.61 9.10L24.61 9.10L24.61 9.10Q24.70 9.10 24.79 9.10L24.79 9.10L24.79 9.10Q25.22 9.10 25.61 8.97L25.61 8.97L25.61 8.97Q26.00 8.83 26.29 8.56L26.29 8.56L26.29 8.56Q26.58 8.29 26.75 7.87L26.75 7.87L26.75 7.87Q26.91 7.46 26.91 6.89L26.91 6.89L26.91 6.89Q26.91 6.31 26.73 5.89L26.73 5.89L26.73 5.89Q26.55 5.48 26.21 5.21L26.21 5.21L26.21 5.21Q25.87 4.94 25.39 4.82L25.39 4.82L25.39 4.82Q24.90 4.69 24.29 4.69L24.29 4.69L23.15 4.69ZM32.67 13.78L32.67 13.78L32.67 13.78Q31.86 13.78 31.23 13.49L31.23 13.49L31.23 13.49Q30.60 13.21 30.17 12.72L30.17 12.72L30.17 12.72Q29.74 12.24 29.51 11.59L29.51 11.59L29.51 11.59Q29.28 10.94 29.28 10.23L29.28 10.23L29.28 10.23Q29.28 9.41 29.57 8.69L29.57 8.69L29.57 8.69Q29.86 7.96 30.38 7.42L30.38 7.42L30.38 7.42Q30.89 6.88 31.60 6.57L31.60 6.57L31.60 6.57Q32.31 6.26 33.15 6.26L33.15 6.26L33.15 6.26Q33.96 6.26 34.60 6.55L34.60 6.55L34.60 6.55Q35.23 6.84 35.67 7.33L35.67 7.33L35.67 7.33Q36.10 7.83 36.33 8.47L36.33 8.47L36.33 8.47Q36.55 9.12 36.55 9.83L36.55 9.83L36.55 9.83Q36.55 10.66 36.26 11.38L36.26 11.38L36.26 11.38Q35.96 12.10 35.44 12.63L35.44 12.63L35.44 12.63Q34.92 13.17 34.21 13.47L34.21 13.47L34.21 13.47Q33.50 13.78 32.67 13.78ZM32.96 12.74L32.96 12.74L32.96 12.74Q33.46 12.74 33.86 12.54L33.86 12.54L33.86 12.54Q34.27 12.34 34.56 11.99L34.56 11.99L34.56 11.99Q34.85 11.64 35.01 11.17L35.01 11.17L35.01 11.17Q35.17 10.69 35.17 10.14L35.17 10.14L35.17 10.14Q35.17 9.60 35.01 9.10L35.01 9.10L35.01 9.10Q34.86 8.59 34.56 8.19L34.56 8.19L34.56 8.19Q34.26 7.79 33.83 7.54L33.83 7.54L33.83 7.54Q33.40 7.30 32.86 7.30L32.86 7.30L32.86 7.30Q32.36 7.30 31.95 7.50L31.95 7.50L31.95 7.50Q31.55 7.70 31.26 8.06L31.26 8.06L31.26 8.06Q30.97 8.41 30.81 8.89L30.81 8.89L30.81 8.89Q30.65 9.37 30.65 9.91L30.65 9.91L30.65 9.91Q30.65 10.45 30.80 10.96L30.80 10.96L30.80 10.96Q30.96 11.47 31.26 11.87L31.26 11.87L31.26 11.87Q31.55 12.26 31.98 12.50L31.98 12.50L31.98 12.50Q32.41 12.74 32.96 12.74ZM39.14 11.83L39.14 7.44L37.68 7.44L37.79 6.77L37.79 6.77Q38.32 6.66 38.64 6.49L38.64 6.49L38.64 6.49Q38.96 6.32 39.17 6.07L39.17 6.07L39.17 6.07Q39.38 5.82 39.52 5.46L39.52 5.46L39.52 5.46Q39.66 5.10 39.84 4.60L39.84 4.60L40.44 4.60L40.44 6.40L43.07 6.40L42.79 7.44L40.44 7.44L40.44 11.48L40.44 11.48Q40.44 11.81 40.54 12.04L40.54 12.04L40.54 12.04Q40.64 12.27 40.82 12.41L40.82 12.41L40.82 12.41Q41.00 12.56 41.25 12.62L41.25 12.62L41.25 12.62Q41.50 12.69 41.81 12.69L41.81 12.69L41.81 12.69Q42.12 12.69 42.43 12.63L42.43 12.63L42.43 12.63Q42.75 12.57 43.03 12.47L43.03 12.47L43.03 13.21L43.03 13.21Q42.59 13.49 42.12 13.63L42.12 13.63L42.12 13.63Q41.64 13.78 41.15 13.78L41.15 13.78L41.15 13.78Q40.69 13.78 40.33 13.65L40.33 13.65L40.33 13.65Q39.96 13.52 39.69 13.28L39.69 13.28L39.69 13.28Q39.43 13.03 39.29 12.66L39.29 12.66L39.29 12.66Q39.14 12.30 39.14 11.83L39.14 11.83Z"></path></g><!----><!----></svg>